<svg id="Capa_1" enable-background="new 0 0 512 512" height="512" viewBox="0 0 512 512" width="512" xmlns="http://www.w3.org/2000/svg"><path d="m241 0h30v497h-30z" fill="#e7c994"/><path d="m512 32.359h-256l-20.016 149.666 20.016 213.502h256z" fill="#0051bf"/><path d="m0 32.359h256v363.167h-256z" fill="#6e76e5"/><path d="m383.571 512v-30h-127.571l-10.008 15 10.008 15z" fill="#c47e4e"/><path d="m128.429 482h127.571v30h-127.571z" fill="#e7c994"/><g fill="#fff5f5"><path d="m47.839 245.482h74.391v30h-74.391z"/><path d="m47.839 181.696h74.391v30h-74.391z"/><path d="m47.839 117.911h74.391v30h-74.391z"/></g><path d="m389.77 245.482h74.391v30h-74.391z" fill="#e1ebf0"/><path d="m389.77 181.696h74.391v30h-74.391z" fill="#e1ebf0"/><path d="m389.77 117.911h74.391v30h-74.391z" fill="#e1ebf0"/><path d="m341.931 174.551-105.947-20.016 20.016 105.947c47.382 0 85.931-38.549 85.931-85.931z" fill="#ff9f22"/><path d="m464.161 309.267h-208.161l-10.008 15 10.008 15h208.161z" fill="#e1ebf0"/><path d="m47.839 309.267h208.161v30h-208.161z" fill="#fff5f5"/><path d="m195.266 235.284c15.56 15.56 37.043 25.197 60.734 25.197v-85.931l-42.966 17.475z" fill="#ffd422"/><path d="m256 88.62-20.016 85.931h105.947c0-47.383-38.549-85.931-85.931-85.931z" fill="#e1ebf0"/><path d="m256 88.62c-47.382 0-85.931 38.549-85.931 85.931 0 23.691 9.637 45.174 25.197 60.734l60.734-60.734z" fill="#fff5f5"/></svg>